<svg width="0" height="0" class="hidden">
  <symbol xmlns="http://www.w3.org/2000/svg" viewBox="0 0 26 24" id="cart">
    <path d="M23.938,14.297 C23.819,14.887 23.305,15.314 22.716,15.314 L7.283,15.314 L7.650,17.134 L22.600,17.134 C22.945,17.134 
    23.224,17.419 23.224,17.770 C23.224,18.122 22.945,18.407 22.600,18.407 L7.650,18.407 C7.061,18.407 6.547,17.980 6.428,17.390 
    L3.409,2.434 L0.670,1.221 C0.353,1.081 0.208,0.706 0.346,0.383 C0.483,0.061 0.850,-0.087 1.167,0.052 L3.905,1.266 C4.278,1.431 
    4.549,1.771 4.631,2.177 L5.023,4.121 L24.461,4.121 C24.838,4.121 25.191,4.293 25.429,4.591 C25.667,4.889 25.760,5.276 25.684,5.652 
    L23.938,14.297 ZM5.281,5.395 L7.026,14.041 L22.716,14.041 L24.461,5.395 L5.281,5.395 ZM19.342,8.701 L10.399,8.701 C10.054,8.701 
    9.775,8.417 9.775,8.065 C9.775,7.713 10.054,7.428 10.399,7.428 L19.342,7.428 C19.686,7.428 19.966,7.713 19.966,8.065 C19.966,8.417 
    19.686,8.701 19.342,8.701 ZM10.886,10.735 L18.855,10.735 C19.199,10.735 19.479,11.020 19.479,11.372 C19.479,11.723 19.199,12.008 
    18.855,12.008 L10.886,12.008 C10.541,12.008 10.262,11.723 10.262,11.372 C10.262,11.020 10.541,10.735 10.886,10.735 ZM10.951,19.437 
    C12.183,19.437 13.186,20.460 13.186,21.717 C13.186,22.976 12.183,23.999 10.951,23.999 C9.718,23.999 8.716,22.976 8.716,21.717 
    C8.716,20.460 9.718,19.437 10.951,19.437 ZM10.951,22.725 C11.495,22.725 11.938,22.274 11.938,21.717 C11.938,21.162 11.495,20.710 
    10.951,20.710 C10.406,20.710 9.964,21.162 9.964,21.717 C9.964,22.273 10.406,22.725 10.951,22.725 ZM18.791,19.437 C20.024,19.437 
    21.026,20.460 21.026,21.717 C21.026,22.976 20.024,23.999 18.791,23.999 C17.559,23.999 16.556,22.976 16.556,21.717 C16.556,20.460 
    17.559,19.437 18.791,19.437 ZM18.791,22.725 C19.336,22.725 19.779,22.274 19.779,21.717 C19.779,21.162 19.336,20.710 18.791,20.710 
    C18.247,20.710 17.804,21.162 17.804,21.717 C17.804,22.273 18.247,22.725 18.791,22.725 Z"></path>
  </symbol>
  <symbol xmlns="http://www.w3.org/2000/svg" viewBox="0 0 21 24" id="user">
    <path d="M20.497,21.310 C20.447,21.439 20.353,21.548 20.238,21.623 C20.088,21.717 16.504,23.999 10.506,23.999 C4.509,23.999 
    0.924,21.722 0.775,21.623 C0.655,21.548 0.566,21.439 0.516,21.310 C0.251,20.644 0.256,19.316 0.261,19.059 C0.261,19.054 0.261,19.049 
    0.261,19.043 C0.266,19.004 0.266,18.964 0.266,18.919 C0.296,17.940 0.361,15.639 2.525,14.899 C2.540,14.894 2.555,14.889 2.575,14.883 
    C4.833,14.312 6.693,13.020 6.713,13.005 C7.017,12.791 7.435,12.866 7.650,13.169 C7.864,13.472 7.789,13.889 7.485,14.103 C7.400,14.158 
    5.416,15.539 2.934,16.176 C1.772,16.588 1.642,17.826 1.608,18.959 C1.608,19.004 1.603,19.043 1.603,19.083 C1.593,19.531 1.627,20.221 
    1.707,20.619 C2.520,21.076 5.705,22.662 10.501,22.662 C15.317,22.662 18.483,21.082 19.291,20.624 C19.370,20.227 19.400,19.535 
    19.395,19.088 C19.390,19.049 19.390,19.009 19.390,18.964 C19.356,17.831 19.226,16.594 18.064,16.181 C15.582,15.544 13.597,14.168 
    13.513,14.108 C13.208,13.895 13.134,13.477 13.348,13.174 C13.562,12.871 13.981,12.796 14.285,13.010 C14.305,13.025 16.175,14.317 
    18.423,14.889 C18.438,14.894 18.458,14.899 18.473,14.903 C20.637,15.639 20.702,17.940 20.731,18.924 C20.731,18.969 20.736,19.009 
    20.736,19.049 C20.736,19.054 20.736,19.059 20.736,19.064 C20.741,19.322 20.746,20.649 20.497,21.310 ZM10.571,12.930 C10.556,12.930 
    10.536,12.930 10.521,12.930 C10.511,12.930 10.501,12.930 10.492,12.930 C10.462,12.930 10.437,12.930 10.412,12.930 C8.951,12.905 
    7.769,12.393 6.902,11.414 C4.983,9.257 5.302,5.560 5.337,5.206 C5.461,2.538 6.738,1.271 7.784,0.679 C8.826,0.087 9.913,-0.002 
    10.467,-0.002 L10.496,-0.002 C10.501,-0.002 10.511,-0.002 10.516,-0.002 L10.551,-0.002 C11.558,0.018 12.461,0.257 13.233,0.699 
    C14.270,1.290 15.527,2.558 15.651,5.206 C15.686,5.560 16.005,9.257 14.086,11.414 C13.213,12.393 12.032,12.905 10.571,12.930 
    ZM14.315,5.331 C14.310,5.322 14.310,5.306 14.310,5.291 C14.156,1.921 11.867,1.375 10.521,1.345 C10.506,1.345 10.492,1.345 
    10.481,1.345 L10.462,1.345 C9.375,1.345 6.837,1.728 6.673,5.291 C6.673,5.301 6.668,5.316 6.668,5.331 C6.663,5.361 6.324,8.756 
    7.904,10.524 C8.527,11.231 9.370,11.579 10.467,11.588 C10.476,11.588 10.481,11.588 10.492,11.588 C10.501,11.588 10.506,11.588 
    10.516,11.588 C11.618,11.579 12.456,11.231 13.084,10.524 C14.669,8.745 14.320,5.366 14.315,5.331 Z"></path>
  </symbol>
  <symbol xmlns="http://www.w3.org/2000/svg" viewBox="0 0 35 10" id="s">
    <path d="M32.592,9.237 C28.935,11.543 20.770,7.859 20.834,7.685 C20.685,7.620 20.551,7.562 20.407,7.500 C17.276,6.292 11.567,3.889 8.962,2.814 C6.460,2.034 5.000,1.998 5.000,1.998 C5.078,1.966 5.157,1.945 5.235,1.917 C3.942,1.936 2.888,2.228 2.859,2.276 C-1.398,5.195 1.429,8.005 1.502,8.225 C4.204,11.081 6.862,8.033 6.930,7.967 C7.829,7.900 7.388,8.708 7.382,8.743 C4.825,11.563 1.069,8.774 1.050,8.743 C-1.925,4.534 2.286,1.612 2.407,1.759 C6.064,-0.548 14.229,3.137 14.166,3.311 C14.317,3.377 14.452,3.435 14.598,3.499 C17.730,4.707 23.433,7.108 26.037,8.181 C28.540,8.962 30.000,8.998 30.000,8.998 C29.958,9.028 29.909,9.048 29.866,9.075 C31.111,9.043 32.112,8.767 32.140,8.720 C36.398,5.802 33.570,2.990 33.497,2.771 C30.796,-0.085 28.138,2.962 28.070,3.029 C27.171,3.096 27.611,2.288 27.618,2.254 C30.175,-0.567 33.931,2.223 33.949,2.254 C36.925,6.462 32.713,9.383 32.592,9.237 Z"></path>
  </symbol>
  <symbol xmlns="http://www.w3.org/2000/svg" viewBox="0 0 80 80" id="play">
    <path d="M39.998,80.006 C17.939,80.006 -0.007,62.060 -0.007,40.001 C-0.007,17.943 17.939,-0.003 39.998,-0.003 C62.056,-0.003 80.002,17.943 80.002,40.001 C80.002,62.060 62.056,80.006 39.998,80.006 ZM39.998,2.663 C19.410,2.663 2.660,19.413 2.660,40.001 C2.660,60.589 19.410,77.339 39.998,77.339 C60.586,77.339 77.335,60.589 77.335,40.001 C77.335,19.413 60.586,2.663 39.998,2.663 ZM60.751,41.102 L31.414,61.105 C31.189,61.259 30.926,61.337 30.664,61.337 C30.450,61.337 30.235,61.286 30.041,61.182 C29.603,60.951 29.330,60.498 29.330,60.003 L29.330,19.999 C29.330,19.505 29.603,19.051 30.039,18.820 C30.477,18.589 31.005,18.620 31.414,18.897 L60.751,38.900 C61.115,39.148 61.334,39.559 61.334,40.001 C61.334,40.443 61.115,40.855 60.751,41.102 ZM31.997,22.523 L31.997,57.479 L57.633,40.001 L31.997,22.523 Z"></path>
  </symbol>
  <symbol xmlns="http://www.w3.org/2000/svg" viewBox="0 0 47 61" id="drop">
    <path d="M23.271,60.412 C10.725,60.412 0.518,50.207 0.518,37.663 C0.518,32.574 1.693,27.451 4.011,22.435 C5.855,18.443 8.422,14.513 11.642,10.751 C17.111,4.361 22.503,0.715 22.730,0.563 C23.057,0.343 23.485,0.343 23.813,0.563 C24.040,0.715 29.431,4.361 34.900,10.751 C38.120,14.513 40.687,18.443 42.532,22.435 C44.849,27.451 46.025,32.574 46.025,37.663 C46.025,50.207 35.818,60.412 23.271,60.412 ZM40.766,23.250 C38.997,19.421 36.526,15.642 33.423,12.015 C29.108,6.974 24.764,3.643 23.272,2.561 C21.774,3.648 17.403,7.001 13.085,12.056 C9.990,15.679 7.527,19.454 5.764,23.278 C3.573,28.027 2.463,32.868 2.463,37.663 C2.463,49.135 11.797,58.467 23.271,58.467 C34.745,58.467 44.080,49.135 44.080,37.663 C44.080,32.858 42.965,28.009 40.766,23.250 ZM40.903,38.636 C40.366,38.636 39.931,38.201 39.931,37.663 C39.931,37.000 39.906,36.326 39.857,35.662 C39.817,35.126 40.219,34.660 40.755,34.621 C41.292,34.582 41.757,34.983 41.796,35.518 C41.849,36.230 41.876,36.952 41.876,37.663 C41.876,38.201 41.441,38.636 40.903,38.636 ZM40.639,40.867 C41.161,40.993 41.482,41.519 41.355,42.040 C40.111,47.178 36.711,51.563 32.028,54.072 C31.882,54.150 31.725,54.187 31.570,54.187 C31.223,54.187 30.887,54.001 30.712,53.674 C30.458,53.201 30.636,52.611 31.110,52.358 C35.306,50.111 38.351,46.184 39.465,41.583 C39.592,41.061 40.117,40.741 40.639,40.867 ZM31.569,42.784 C28.745,42.784 26.448,40.486 26.448,37.663 L26.448,33.516 C26.448,30.693 28.745,28.396 31.569,28.396 C34.392,28.396 36.690,30.693 36.690,33.516 L36.690,37.663 C36.690,40.486 34.392,42.784 31.569,42.784 ZM34.745,33.516 C34.745,31.764 33.320,30.340 31.569,30.340 C29.817,30.340 28.392,31.764 28.392,33.516 L28.392,37.663 C28.392,39.415 29.817,40.839 31.569,40.839 C33.320,40.839 34.745,39.415 34.745,37.663 L34.745,33.516 ZM24.308,45.894 L23.790,45.894 C23.468,45.894 23.206,46.156 23.206,46.478 L23.206,47.061 L25.864,47.061 C26.401,47.061 26.837,47.496 26.837,48.033 C26.837,48.570 26.401,49.005 25.864,49.005 L22.234,49.005 C21.697,49.005 21.262,48.570 21.262,48.033 L21.262,46.478 C21.262,45.084 22.396,43.950 23.790,43.950 L24.308,43.950 C24.630,43.950 24.892,43.688 24.892,43.367 C24.892,43.045 24.630,42.784 24.308,42.784 L23.271,42.784 C23.236,42.784 23.206,42.812 23.206,42.849 C23.206,43.386 22.771,43.820 22.234,43.820 C21.697,43.820 21.262,43.386 21.262,42.849 C21.262,41.740 22.163,40.839 23.271,40.839 L24.308,40.839 C25.702,40.839 26.837,41.974 26.837,43.367 C26.837,44.760 25.702,45.894 24.308,45.894 ZM19.122,42.784 C18.585,42.784 18.150,42.348 18.150,41.812 L18.150,36.562 L11.797,36.562 L11.797,41.812 C11.797,42.348 11.362,42.784 10.825,42.784 C10.288,42.784 9.853,42.348 9.853,41.812 L9.853,29.368 C9.853,28.831 10.288,28.396 10.825,28.396 C11.362,28.396 11.797,28.831 11.797,29.368 L11.797,34.617 L18.150,34.617 L18.150,29.368 C18.150,28.831 18.585,28.396 19.122,28.396 C19.660,28.396 20.095,28.831 20.095,29.368 L20.095,41.812 C20.095,42.348 19.660,42.784 19.122,42.784 Z"></path>
  </symbol>
  <symbol xmlns="http://www.w3.org/2000/svg" viewBox="0 0 61 54" id="plate">
    <path d="M60.212,25.478 C60.669,25.973 60.906,26.644 60.861,27.322 C60.260,36.296 54.619,40.801 46.336,44.805 C45.411,45.252 
    44.647,45.996 44.185,46.901 C43.734,47.784 43.805,48.924 44.372,49.877 C44.816,50.626 44.829,51.505 44.414,52.248 C44.000,52.990 
    43.249,53.433 42.407,53.433 L19.305,53.433 C18.463,53.433 17.712,52.990 17.298,52.248 C16.883,51.505 16.895,50.626 17.330,49.895 
    C17.907,48.925 17.979,47.784 17.527,46.900 C17.064,45.995 16.300,45.252 15.376,44.805 C7.091,40.801 1.451,36.295 0.851,27.321 
    C0.805,26.644 1.041,25.971 1.498,25.477 C1.951,24.987 2.590,24.706 3.251,24.706 L4.204,24.706 C3.855,24.229 3.644,23.654 
    3.644,23.045 C3.644,22.134 4.084,21.275 4.821,20.749 L5.179,20.493 C5.475,20.283 5.580,19.889 5.427,19.557 L5.244,19.156 
    C4.865,18.327 4.907,17.361 5.359,16.570 C5.809,15.781 6.615,15.260 7.512,15.178 L7.948,15.138 C8.307,15.105 8.592,14.817 
    8.625,14.452 L8.664,14.011 C8.745,13.102 9.259,12.288 10.040,11.833 C10.819,11.377 11.775,11.332 12.593,11.716 L12.991,11.903 
    C13.094,11.952 13.194,11.961 13.289,11.956 C13.407,11.644 13.551,11.341 13.746,11.061 L19.585,2.674 C20.872,0.823 23.406,0.380 
    25.235,1.683 C26.117,2.312 26.705,3.254 26.890,4.337 C27.077,5.419 26.836,6.508 26.214,7.402 L23.024,11.983 C23.676,12.435 
    24.131,13.149 24.208,14.011 L24.248,14.451 C24.272,14.725 24.438,14.955 24.670,15.067 C24.761,14.831 24.830,14.611 24.844,14.452 
    L24.883,14.011 C24.964,13.102 25.478,12.287 26.260,11.831 C27.041,11.376 27.995,11.331 28.813,11.716 L29.211,11.903 C29.537,12.057 
    29.927,11.949 30.135,11.652 L30.388,11.289 C30.906,10.544 31.754,10.099 32.655,10.099 C32.872,10.099 33.085,10.127 33.292,10.177 
    C33.381,4.597 37.887,0.084 43.421,0.084 C48.955,0.084 53.462,4.600 53.548,10.181 C57.220,11.800 59.639,15.485 59.639,19.577 
    C59.639,21.392 59.154,23.155 58.263,24.707 L58.460,24.707 C59.121,24.707 59.759,24.988 60.212,25.478 ZM24.558,6.221 C24.868,5.776 
    24.987,5.231 24.894,4.689 C24.802,4.147 24.508,3.675 24.068,3.361 C23.155,2.709 21.887,2.932 21.243,3.857 L15.403,12.245 
    C15.243,12.475 15.137,12.732 15.081,13.001 C15.044,13.178 15.039,13.356 15.048,13.530 C15.051,13.574 15.054,13.618 15.059,13.662 
    C15.079,13.837 15.113,14.008 15.175,14.170 C15.179,14.181 15.185,14.189 15.189,14.199 C15.251,14.352 15.334,14.494 15.431,14.629 
    C15.457,14.665 15.483,14.701 15.512,14.735 C15.622,14.868 15.744,14.994 15.889,15.098 C15.891,15.099 15.892,15.101 15.894,15.102 
    C16.334,15.417 16.873,15.534 17.407,15.444 C17.943,15.350 18.408,15.053 18.718,14.606 L20.602,11.901 C20.602,11.900 20.604,11.900 
    20.604,11.900 L24.558,6.221 ZM25.443,20.600 C25.403,20.451 25.378,20.300 25.363,20.148 C25.363,20.140 25.361,20.134 25.360,20.128 
    C25.316,19.649 25.393,19.154 25.605,18.692 L25.791,18.288 C25.840,18.180 25.861,18.063 25.857,17.948 C25.857,17.944 25.858,17.938 
    25.858,17.933 C25.853,17.829 25.819,17.727 25.770,17.631 C25.750,17.591 25.721,17.559 25.694,17.524 C25.653,17.469 25.608,17.415 
    25.553,17.374 C25.518,17.347 25.478,17.328 25.439,17.308 C25.358,17.268 25.275,17.228 25.179,17.219 L24.743,17.179 C23.408,17.058 
    22.351,15.987 22.229,14.635 L22.190,14.195 C22.168,13.943 22.037,13.758 21.867,13.644 L20.376,15.786 C19.755,16.679 18.823,17.274 
    17.754,17.463 C17.519,17.504 17.284,17.524 17.049,17.524 C17.032,17.524 17.016,17.520 16.999,17.520 C16.933,17.519 16.869,17.509 
    16.803,17.505 C16.628,17.493 16.454,17.474 16.283,17.440 C16.200,17.424 16.120,17.405 16.039,17.383 C15.878,17.341 15.721,17.287 
    15.565,17.224 C15.494,17.196 15.425,17.171 15.356,17.140 C15.139,17.037 14.926,16.920 14.726,16.777 C14.499,16.616 14.293,16.431 
    14.107,16.231 C14.052,16.172 14.011,16.103 13.960,16.041 C13.838,15.893 13.716,15.745 13.617,15.583 C13.560,15.490 13.523,15.390 
    13.474,15.294 C13.402,15.150 13.325,15.009 13.269,14.858 C13.223,14.729 13.196,14.594 13.162,14.462 C13.133,14.348 13.090,14.240 
    13.070,14.123 C13.067,14.106 13.069,14.087 13.066,14.069 C13.062,14.047 13.052,14.025 13.049,14.004 C12.737,13.979 12.430,13.900 
    12.140,13.765 L11.741,13.577 C11.518,13.473 11.265,13.484 11.053,13.608 C10.841,13.733 10.705,13.947 10.683,14.195 L10.644,14.638 
    C10.522,15.989 9.465,17.059 8.129,17.180 L7.694,17.221 C7.448,17.242 7.237,17.379 7.113,17.595 C6.991,17.812 6.978,18.066 
    7.083,18.292 L7.266,18.693 C7.830,19.928 7.443,21.390 6.345,22.170 L5.988,22.425 C5.786,22.570 5.671,22.794 5.671,23.045 
    C5.671,23.295 5.786,23.520 5.988,23.663 L6.347,23.919 C6.642,24.130 6.892,24.399 7.086,24.707 L25.787,24.707 C25.797,24.690 
    25.812,24.676 25.823,24.660 C25.889,24.560 25.963,24.467 26.040,24.377 C26.073,24.338 26.103,24.295 26.139,24.257 C26.257,24.134 
    26.385,24.020 26.523,23.920 L26.870,23.674 L26.883,23.664 C26.955,23.613 27.002,23.543 27.051,23.473 C27.071,23.444 27.103,23.425 
    27.119,23.395 C27.173,23.289 27.202,23.171 27.202,23.045 C27.202,22.796 27.086,22.572 26.883,22.423 L26.771,22.343 L26.524,22.168 
    C25.977,21.778 25.606,21.218 25.443,20.600 ZM33.520,12.834 L33.268,12.470 C32.985,12.065 32.330,12.062 32.045,12.471 L31.793,12.835 
    C31.021,13.942 29.576,14.335 28.360,13.766 L27.961,13.578 C27.738,13.472 27.486,13.485 27.274,13.609 C27.060,13.733 26.924,13.948 
    26.903,14.196 L26.863,14.638 C26.833,14.976 26.743,15.318 26.638,15.631 C26.684,15.660 26.716,15.706 26.760,15.739 C26.906,15.849 
    27.045,15.967 27.168,16.105 C27.227,16.172 27.274,16.247 27.326,16.319 C27.390,16.405 27.463,16.482 27.517,16.575 C27.545,16.626 
    27.558,16.683 27.584,16.736 C27.603,16.773 27.633,16.803 27.651,16.843 C27.679,16.909 27.691,16.980 27.716,17.048 C27.744,17.130 
    27.772,17.210 27.794,17.294 C27.826,17.424 27.843,17.555 27.857,17.687 C27.865,17.764 27.878,17.840 27.880,17.917 C27.883,18.065 
    27.868,18.211 27.847,18.359 C27.839,18.422 27.839,18.484 27.826,18.547 C27.783,18.756 27.722,18.962 27.631,19.160 L27.446,19.563 
    C27.295,19.893 27.398,20.286 27.693,20.497 L28.052,20.753 C28.345,20.962 28.575,21.234 28.766,21.530 C28.934,21.793 29.075,22.073 
    29.149,22.379 C29.172,22.471 29.170,22.569 29.183,22.663 C29.201,22.792 29.229,22.916 29.229,23.048 L29.229,23.050 C29.228,23.252 
    29.200,23.450 29.157,23.644 C29.147,23.691 29.137,23.737 29.124,23.784 C29.072,23.975 29.007,24.162 28.918,24.337 C28.915,24.342 
    28.912,24.346 28.909,24.352 C28.844,24.475 28.773,24.595 28.691,24.708 L42.006,24.708 C42.025,24.677 42.051,24.651 42.071,24.621 
    C42.124,24.543 42.184,24.469 42.245,24.396 C42.286,24.346 42.325,24.294 42.369,24.248 C42.482,24.131 42.603,24.023 42.734,23.928 
    C42.738,23.925 42.740,23.922 42.743,23.920 L43.104,23.663 C43.305,23.520 43.421,23.295 43.421,23.045 C43.421,22.796 43.305,22.571 
    43.104,22.425 L42.745,22.168 C42.623,22.081 42.512,21.984 42.409,21.880 C42.354,21.827 42.307,21.768 42.257,21.710 C42.218,21.664 
    42.179,21.620 42.143,21.571 C42.078,21.484 42.020,21.395 41.965,21.302 C41.959,21.291 41.953,21.280 41.947,21.270 C41.519,20.517 
    41.444,19.586 41.805,18.749 C41.812,18.731 41.815,18.714 41.823,18.696 L42.010,18.290 C42.113,18.065 42.102,17.810 41.978,17.595 
    C41.855,17.379 41.644,17.241 41.397,17.219 L40.961,17.179 C39.626,17.058 38.569,15.987 38.447,14.635 L38.408,14.195 C38.387,13.946 
    38.251,13.732 38.038,13.607 C37.826,13.483 37.575,13.472 37.351,13.576 L36.954,13.763 C36.814,13.829 36.670,13.879 36.525,13.919 
    C36.442,13.942 36.360,13.953 36.277,13.968 C36.219,13.979 36.163,13.992 36.105,13.998 C35.982,14.012 35.858,14.015 35.736,14.012 
    C35.726,14.012 35.717,14.012 35.706,14.012 C34.856,13.987 34.037,13.575 33.520,12.834 ZM43.421,2.136 C38.948,2.136 35.311,5.818 
    35.311,10.343 C35.311,10.840 35.361,11.353 35.459,11.872 C35.556,11.927 35.663,11.956 35.769,11.963 C35.775,11.963 35.780,11.964 
    35.786,11.964 C35.895,11.969 36.003,11.950 36.104,11.903 L36.499,11.717 C36.695,11.626 36.898,11.562 37.104,11.519 C37.175,11.505 
    37.247,11.505 37.319,11.496 C37.435,11.480 37.549,11.458 37.666,11.458 C37.685,11.458 37.704,11.466 37.724,11.466 C37.878,11.469 
    38.028,11.497 38.180,11.527 C38.256,11.541 38.332,11.543 38.407,11.565 C38.630,11.628 38.848,11.715 39.053,11.834 C39.359,12.014 
    39.610,12.260 39.824,12.534 L41.271,11.070 C41.667,10.669 42.308,10.669 42.704,11.070 C43.100,11.471 43.100,12.120 42.704,12.520 
    L40.538,14.712 C40.649,14.948 40.876,15.116 41.145,15.140 L41.582,15.180 C42.479,15.262 43.284,15.782 43.735,16.572 C43.837,16.751 
    43.911,16.940 43.971,17.133 C43.989,17.190 44.000,17.247 44.015,17.305 C44.049,17.448 44.073,17.593 44.086,17.741 C44.091,17.801 
    44.098,17.860 44.099,17.920 C44.103,18.108 44.092,18.296 44.058,18.481 C44.056,18.495 44.056,18.507 44.054,18.520 L44.054,18.521 
    C44.081,18.520 44.107,18.520 44.132,18.517 C44.264,18.505 44.394,18.486 44.525,18.467 C44.652,18.448 44.781,18.434 44.908,18.410 
    C45.030,18.386 45.150,18.355 45.271,18.327 C45.401,18.296 45.533,18.267 45.661,18.229 C45.773,18.196 45.882,18.157 45.992,18.119 
    C46.124,18.075 46.256,18.030 46.385,17.980 C46.487,17.939 46.586,17.893 46.687,17.848 C46.818,17.789 46.949,17.730 47.077,17.665 
    C47.168,17.618 47.257,17.565 47.347,17.515 C47.477,17.441 47.608,17.368 47.735,17.287 C47.816,17.236 47.893,17.180 47.971,17.126 
    C48.101,17.036 48.230,16.946 48.354,16.849 C48.422,16.797 48.487,16.741 48.553,16.685 C48.682,16.577 48.809,16.470 48.931,16.355 
    C48.986,16.302 49.038,16.249 49.090,16.195 C49.218,16.069 49.344,15.940 49.462,15.805 C49.503,15.759 49.541,15.710 49.581,15.663 
    C49.707,15.515 49.829,15.362 49.944,15.205 C49.970,15.168 49.995,15.130 50.022,15.092 C50.144,14.918 50.262,14.739 50.371,14.556 
    C50.385,14.531 50.398,14.507 50.412,14.483 C50.529,14.280 50.638,14.075 50.737,13.863 C50.742,13.853 50.746,13.844 50.750,13.835 
    C51.179,12.911 51.445,11.892 51.505,10.814 C51.505,10.810 51.508,10.803 51.508,10.803 C51.517,10.651 51.530,10.498 51.530,10.343 
    C51.530,5.818 47.892,2.136 43.421,2.136 ZM53.356,12.366 C53.250,12.897 53.094,13.410 52.911,13.910 C52.895,13.955 52.878,14.002 
    52.861,14.047 C52.780,14.259 52.692,14.465 52.598,14.669 C52.563,14.744 52.528,14.817 52.492,14.891 C52.401,15.076 52.307,15.260 
    52.204,15.440 C52.156,15.526 52.103,15.609 52.052,15.693 C51.951,15.859 51.850,16.027 51.739,16.187 C51.677,16.278 51.609,16.362 
    51.545,16.449 C51.364,16.696 51.173,16.933 50.972,17.162 C50.865,17.283 50.761,17.406 50.648,17.522 C50.550,17.623 50.447,17.718 
    50.344,17.815 C50.225,17.928 50.106,18.040 49.981,18.148 C49.877,18.238 49.769,18.323 49.661,18.410 C49.529,18.514 49.394,18.617 
    49.257,18.715 C49.149,18.793 49.039,18.869 48.928,18.943 C48.778,19.042 48.624,19.135 48.469,19.226 C48.363,19.289 48.258,19.352 
    48.150,19.411 C47.956,19.516 47.756,19.610 47.556,19.702 C47.480,19.736 47.408,19.775 47.330,19.808 C47.054,19.926 46.771,20.029 
    46.482,20.123 C46.391,20.153 46.298,20.174 46.205,20.201 C45.999,20.261 45.792,20.318 45.581,20.364 C45.466,20.389 45.350,20.409 
    45.234,20.431 C45.038,20.467 44.841,20.497 44.641,20.522 C44.521,20.537 44.399,20.550 44.277,20.559 C44.197,20.566 44.119,20.579 
    44.038,20.584 L44.271,20.751 C45.007,21.275 45.447,22.133 45.447,23.045 C45.447,23.249 45.418,23.447 45.376,23.642 C45.366,23.691 
    45.355,23.738 45.342,23.786 C45.290,23.975 45.226,24.162 45.137,24.337 C45.134,24.341 45.130,24.346 45.127,24.352 C45.063,24.475 
    44.992,24.594 44.910,24.707 L48.489,24.707 L48.489,20.603 C48.489,20.036 48.942,19.577 49.503,19.577 C50.063,19.577 50.516,20.036 
    50.516,20.603 L50.516,24.707 L55.820,24.707 C56.979,23.249 57.612,21.444 57.612,19.577 C57.612,16.539 55.945,13.782 53.356,12.366 
    ZM56.288,26.758 L42.716,26.758 L42.652,26.758 L26.433,26.758 L6.441,26.758 L3.252,26.758 C3.119,26.758 3.031,26.823 2.980,26.878 
    C2.937,26.927 2.864,27.031 2.874,27.184 C3.409,35.191 8.388,39.154 16.250,42.952 C17.570,43.589 18.663,44.656 19.327,45.956 
    C20.101,47.469 20.004,49.377 19.077,50.935 C18.997,51.070 19.026,51.173 19.063,51.237 C19.099,51.303 19.171,51.381 19.305,51.381 
    L42.405,51.381 C42.540,51.381 42.611,51.302 42.647,51.237 C42.685,51.173 42.713,51.070 42.644,50.953 C41.706,49.377 41.610,47.471 
    42.384,45.958 C43.049,44.658 44.141,43.591 45.462,42.953 C53.322,39.154 58.302,35.191 58.838,27.184 C58.849,27.030 58.776,26.927 
    58.732,26.878 C58.681,26.823 58.593,26.758 58.461,26.758 L56.288,26.758 ZM38.352,49.329 L23.147,49.329 C22.587,49.329 22.133,48.871 
    22.133,48.303 C22.133,47.736 22.587,47.277 23.147,47.277 L38.352,47.277 C38.912,47.277 39.366,47.736 39.366,48.303 C39.366,48.871 
    38.912,49.329 38.352,49.329 ZM38.352,46.251 L29.526,46.251 C28.966,46.251 28.512,45.793 28.512,45.225 C28.512,44.658 28.966,44.200 
    29.526,44.200 L38.352,44.200 C38.912,44.200 39.366,44.658 39.366,45.225 C39.366,45.793 38.912,46.251 38.352,46.251 ZM26.579,46.251 
    L23.147,46.251 C22.586,46.251 22.133,45.793 22.133,45.225 C22.133,44.658 22.587,44.200 23.147,44.200 L26.579,44.200 C27.139,44.200 
    27.593,44.658 27.593,45.225 C27.593,45.793 27.139,46.251 26.579,46.251 ZM51.530,19.577 C50.970,19.577 50.516,19.119 50.516,18.551 
    C50.516,17.984 50.970,17.525 51.530,17.525 L55.585,17.525 C56.146,17.525 56.599,17.984 56.599,18.551 C56.599,19.119 56.146,19.577 
    55.585,19.577 L51.530,19.577 ZM45.571,9.619 C45.373,9.818 45.113,9.919 44.854,9.919 C44.594,9.919 44.335,9.818 44.137,9.619 
    C43.741,9.217 43.741,8.568 44.137,8.167 L47.005,5.266 C47.401,4.866 48.042,4.866 48.438,5.266 C48.835,5.668 48.834,6.316 48.438,6.717 
    L45.571,9.619 ZM45.570,11.069 L48.437,13.970 C48.833,14.371 48.834,15.020 48.437,15.421 C48.240,15.621 47.980,15.722 47.721,15.722 
    C47.461,15.722 47.202,15.621 47.004,15.421 L44.136,12.520 C43.740,12.118 43.740,11.470 44.136,11.069 C44.533,10.668 45.173,10.668 
    45.570,11.069 ZM41.987,9.919 C41.728,9.919 41.468,9.818 41.271,9.619 L38.403,6.717 C38.007,6.316 38.007,5.668 38.403,5.266 
    C38.799,4.866 39.440,4.866 39.836,5.266 L42.704,8.167 C43.100,8.568 43.100,9.217 42.704,9.619 C42.506,9.818 42.247,9.919 
    41.987,9.919 ZM37.041,18.852 L38.055,19.878 C38.452,20.279 38.452,20.927 38.055,21.328 C37.857,21.528 37.598,21.629 37.338,21.629 
    C37.079,21.629 36.819,21.528 36.622,21.328 L35.608,20.303 C35.212,19.901 35.212,19.253 35.608,18.852 C36.004,18.451 36.645,18.451 
    37.041,18.852 ZM32.987,23.380 C32.789,23.580 32.530,23.681 32.270,23.681 C32.011,23.681 31.751,23.580 31.553,23.380 C31.157,22.979 
    31.157,22.331 31.553,21.930 L32.567,20.903 C32.962,20.502 33.604,20.502 34.000,20.903 C34.397,21.304 34.397,21.953 34.000,22.354 
    L32.987,23.380 ZM32.480,18.763 C32.282,18.963 32.023,19.065 31.763,19.065 C31.504,19.065 31.244,18.963 31.046,18.763 C30.650,18.363 
    30.650,17.714 31.046,17.313 L32.567,15.774 C32.963,15.373 33.604,15.373 34.000,15.774 C34.397,16.175 34.397,16.823 34.000,17.224 
    L32.480,18.763 Z"></path>
  </symbol>
  <symbol xmlns="http://www.w3.org/2000/svg" viewBox="0 0 51 61" id="bottles">
    <path d="M50.838,18.796 C50.792,18.692 50.719,18.611 50.650,18.529 C49.829,14.889 47.361,12.821 45.465,11.238 C45.182,11.002 44.908,10.773 44.649,10.547 L44.627,10.528 C44.241,10.180 44.176,9.754 44.190,9.458 C44.216,8.901 44.520,8.353 45.003,7.993 C45.043,7.964 45.071,7.924 45.109,7.893 C45.248,7.778 45.379,7.657 45.499,7.524 C45.549,7.467 45.597,7.409 45.643,7.349 C45.754,7.209 45.850,7.060 45.937,6.903 C45.970,6.845 46.006,6.787 46.034,6.726 C46.118,6.553 46.181,6.372 46.234,6.183 C46.249,6.130 46.271,6.079 46.284,6.025 C46.337,5.784 46.373,5.535 46.373,5.278 L46.373,4.146 C46.373,2.274 44.839,0.750 42.954,0.750 L30.418,0.750 C28.533,0.750 26.999,2.274 26.999,4.146 L26.999,5.278 C26.999,5.538 27.036,5.790 27.092,6.033 C27.105,6.090 27.127,6.143 27.144,6.199 C27.199,6.389 27.266,6.574 27.351,6.749 C27.379,6.805 27.410,6.857 27.440,6.912 C27.538,7.085 27.649,7.250 27.774,7.404 C27.808,7.444 27.840,7.486 27.876,7.526 C28.039,7.707 28.216,7.872 28.415,8.016 C28.419,8.019 28.423,8.024 28.427,8.028 C28.901,8.366 29.235,8.891 29.298,9.400 C29.342,9.764 29.250,10.083 29.024,10.347 C28.962,10.420 28.891,10.491 28.818,10.555 C28.566,10.769 28.302,10.988 28.030,11.211 C27.349,11.772 26.606,12.389 25.890,13.099 C25.191,12.393 24.468,11.785 23.814,11.238 C23.531,11.003 23.257,10.773 22.997,10.547 L22.974,10.528 C22.589,10.180 22.524,9.755 22.538,9.458 C22.563,8.902 22.867,8.353 23.350,7.993 C23.390,7.964 23.419,7.924 23.456,7.893 C23.595,7.778 23.726,7.657 23.846,7.524 C23.896,7.467 23.944,7.409 23.991,7.349 C24.101,7.209 24.197,7.060 24.285,6.903 C24.318,6.845 24.353,6.787 24.382,6.726 C24.465,6.553 24.529,6.372 24.581,6.183 C24.596,6.130 24.619,6.079 24.631,6.025 C24.685,5.784 24.720,5.535 24.720,5.278 L24.720,4.146 C24.720,2.274 23.186,0.750 21.301,0.750 L8.765,0.750 C6.880,0.750 5.347,2.274 5.347,4.146 L5.347,5.278 C5.347,5.538 5.383,5.790 5.439,6.033 C5.453,6.090 5.474,6.143 5.491,6.199 C5.545,6.391 5.612,6.574 5.698,6.749 C5.725,6.805 5.756,6.857 5.786,6.912 C5.883,7.085 5.995,7.250 6.120,7.404 C6.155,7.444 6.186,7.486 6.222,7.526 C6.385,7.707 6.563,7.872 6.761,8.016 C6.765,8.019 6.769,8.024 6.773,8.028 C7.248,8.366 7.581,8.891 7.644,9.400 C7.689,9.764 7.596,10.083 7.371,10.347 C7.308,10.420 7.237,10.491 7.164,10.555 C6.905,10.774 6.632,10.998 6.352,11.230 C4.004,13.157 0.788,15.798 0.788,21.124 L0.788,28.122 C0.786,28.158 0.787,28.192 0.788,28.227 L0.788,55.330 C0.788,58.313 3.233,60.740 6.237,60.740 L23.830,60.740 C24.556,60.740 25.247,60.592 25.880,60.334 C26.532,60.602 27.204,60.740 27.888,60.740 L45.483,60.740 C48.487,60.740 50.930,58.312 50.930,55.328 L50.930,21.124 C50.930,20.616 50.894,20.141 50.839,19.680 C50.954,19.406 50.964,19.090 50.838,18.796 ZM48.642,30.179 L45.223,30.179 C44.594,30.179 44.083,30.685 44.083,31.311 C44.083,31.937 44.594,32.443 45.223,32.443 L48.642,32.443 L48.642,38.102 L42.944,38.102 C42.315,38.102 41.804,38.608 41.804,39.234 C41.804,39.860 42.315,40.366 42.944,40.366 L48.642,40.366 L48.642,42.630 L45.223,42.630 C44.594,42.630 44.083,43.136 44.083,43.762 C44.083,44.388 44.594,44.893 45.223,44.893 L48.642,44.893 L48.642,47.157 L38.385,47.157 L38.385,27.915 L48.642,27.915 L48.642,30.179 ZM29.279,4.146 C29.279,3.521 29.790,3.014 30.418,3.014 L42.954,3.014 C43.582,3.014 44.094,3.521 44.094,4.146 L44.094,5.278 C44.094,5.445 44.050,5.607 43.981,5.753 C43.963,5.792 43.932,5.822 43.909,5.860 C43.845,5.962 43.770,6.057 43.674,6.138 C43.475,6.299 43.230,6.410 42.954,6.410 L30.418,6.410 C30.139,6.410 29.893,6.299 29.694,6.133 C29.655,6.100 29.615,6.067 29.581,6.030 C29.503,5.944 29.437,5.852 29.388,5.747 C29.377,5.722 29.369,5.694 29.358,5.668 C29.313,5.546 29.279,5.416 29.279,5.278 L29.279,4.146 ZM27.358,14.834 C28.034,14.145 28.768,13.540 29.483,12.953 C29.766,12.720 30.042,12.494 30.307,12.268 C30.472,12.125 30.622,11.975 30.759,11.815 C31.397,11.069 31.681,10.113 31.559,9.125 C31.540,8.972 31.487,8.824 31.450,8.674 L42.024,8.674 C41.974,8.898 41.923,9.123 41.912,9.354 C41.862,10.455 42.277,11.462 43.113,12.220 L43.144,12.248 C43.416,12.485 43.703,12.723 43.997,12.970 C45.697,14.391 47.559,15.973 48.304,18.618 C45.198,19.788 42.484,20.027 39.850,19.362 C38.661,19.061 37.494,18.633 36.366,18.220 C33.910,17.322 31.366,16.406 28.376,16.645 C28.324,16.525 28.270,16.406 28.213,16.289 C28.207,16.277 28.202,16.263 28.195,16.250 C27.946,15.747 27.667,15.281 27.364,14.847 C27.362,14.842 27.361,14.839 27.358,14.834 ZM7.626,4.146 C7.626,3.521 8.138,3.014 8.765,3.014 L21.301,3.014 C21.929,3.014 22.441,3.521 22.441,4.146 L22.441,5.278 C22.441,5.445 22.398,5.607 22.328,5.753 C22.310,5.792 22.279,5.822 22.256,5.860 C22.192,5.962 22.117,6.057 22.022,6.138 C21.822,6.299 21.577,6.410 21.301,6.410 L8.765,6.410 C8.486,6.410 8.240,6.299 8.042,6.133 C8.002,6.100 7.962,6.067 7.928,6.030 C7.850,5.944 7.784,5.852 7.735,5.747 C7.724,5.722 7.716,5.694 7.706,5.668 C7.660,5.546 7.626,5.416 7.626,5.278 L7.626,4.146 ZM7.805,12.974 C8.097,12.734 8.381,12.501 8.654,12.268 C8.819,12.125 8.970,11.975 9.106,11.815 C9.744,11.069 10.028,10.113 9.906,9.125 C9.887,8.972 9.834,8.824 9.797,8.674 L20.371,8.674 C20.320,8.899 20.270,9.125 20.260,9.355 C20.209,10.458 20.625,11.465 21.461,12.221 L21.492,12.248 C21.763,12.485 22.050,12.725 22.345,12.971 C23.432,13.880 24.591,14.848 25.480,16.119 C25.493,16.137 25.503,16.155 25.516,16.173 C25.707,16.452 25.883,16.747 26.045,17.056 C26.074,17.109 26.102,17.164 26.130,17.217 C26.294,17.547 26.441,17.897 26.563,18.268 C26.573,18.302 26.582,18.334 26.593,18.367 C26.717,18.758 26.818,19.172 26.887,19.617 C26.888,19.626 26.889,19.636 26.890,19.645 C26.959,20.108 26.999,20.599 26.999,21.125 L26.999,26.361 C22.321,24.813 18.656,25.602 14.443,27.386 C10.318,29.134 7.446,29.147 3.067,27.411 L3.067,21.124 C3.067,16.864 5.584,14.797 7.805,12.974 ZM3.067,55.330 L3.067,29.834 C5.162,30.593 7.001,30.990 8.800,30.990 C10.890,30.990 12.943,30.480 15.337,29.466 C20.056,27.467 23.110,27.281 26.999,28.772 L26.999,55.327 C26.999,55.593 26.957,55.852 26.890,56.103 C26.879,56.150 26.861,56.194 26.848,56.238 C26.773,56.475 26.678,56.706 26.549,56.919 C26.548,56.921 26.547,56.923 26.546,56.924 C26.255,57.400 25.835,57.802 25.317,58.081 L25.023,58.240 C24.654,58.390 24.252,58.476 23.830,58.476 L6.236,58.476 C4.488,58.476 3.067,57.065 3.067,55.330 ZM45.483,58.476 L28.244,58.476 C28.358,58.319 28.453,58.149 28.550,57.979 C28.615,57.867 28.680,57.756 28.736,57.639 C28.806,57.493 28.867,57.345 28.924,57.193 C28.989,57.023 29.041,56.848 29.088,56.672 C29.120,56.548 29.157,56.427 29.179,56.301 C29.239,55.983 29.277,55.662 29.277,55.334 C29.277,55.333 29.277,55.331 29.277,55.330 L29.277,55.328 L29.277,27.999 C29.277,27.998 29.277,27.997 29.277,27.995 L29.277,21.124 C29.277,20.551 29.234,20.015 29.166,19.501 C29.159,19.452 29.156,19.401 29.149,19.352 C29.125,19.190 29.094,19.033 29.063,18.876 C31.352,18.813 33.411,19.550 35.576,20.344 C36.759,20.777 37.982,21.224 39.286,21.553 C40.452,21.849 41.623,21.998 42.818,21.998 C44.670,21.998 46.589,21.624 48.634,20.902 C48.635,20.979 48.650,21.045 48.650,21.123 L48.650,25.651 L36.106,25.651 L36.106,49.420 L48.652,49.420 L48.652,55.327 C48.652,57.063 47.230,58.476 45.483,58.476 Z"></path>
  </symbol>
  <symbol xmlns="http://www.w3.org/2000/svg" viewBox="0 0 61 56" id="heart">
    <path d="M59.452,23.070 C58.208,28.321 55.333,33.095 51.141,36.878 L29.869,55.772 L8.957,36.877 C4.765,33.095 1.890,28.320 0.646,23.070 C-0.218,19.430 0.066,17.197 0.135,16.773 C1.010,7.172 7.838,0.205 16.380,0.205 C21.980,0.205 26.978,3.193 29.883,8.143 C32.816,3.256 38.027,0.206 43.718,0.206 C52.261,0.206 59.087,7.173 59.964,16.775 C60.032,17.199 60.316,19.431 59.452,23.070 ZM57.684,17.134 C56.918,8.612 51.051,2.506 43.719,2.506 C38.180,2.506 33.165,5.896 30.941,11.142 L29.878,13.651 L28.814,11.142 C26.554,5.814 21.791,2.504 16.380,2.504 C9.047,2.504 3.181,8.611 2.430,17.023 L2.413,17.139 C2.412,17.152 2.076,19.097 2.893,22.542 C4.030,27.337 6.663,31.705 10.508,35.174 L29.883,52.680 L49.597,35.169 C53.435,31.708 56.069,27.339 57.204,22.544 C58.022,19.099 57.686,17.152 57.684,17.134 ZM18.505,9.490 C13.413,9.490 9.269,13.615 9.269,18.685 C9.269,19.320 8.753,19.835 8.115,19.835 C7.476,19.835 6.960,19.320 6.960,18.685 C6.960,12.347 12.139,7.191 18.505,7.191 C19.142,7.191 19.659,7.705 19.659,8.341 C19.659,8.976 19.143,9.490 18.505,9.490 Z"></path>
  </symbol>
  <symbol xmlns="http://www.w3.org/2000/svg" viewBox="0 0 58 61" id="bio">
    <path d="M54.433,19.097 C53.475,19.097 52.605,18.717 51.967,18.103 L45.177,21.987 C45.247,22.263 45.285,22.550 45.285,22.847 C45.285,24.451 44.193,25.806 42.708,26.224 L42.708,33.992 C44.193,34.410 45.285,35.765 45.285,37.369 C45.285,37.666 45.247,37.954 45.177,38.229 L51.967,42.113 C52.605,41.499 53.475,41.119 54.433,41.119 C56.387,41.119 57.977,42.694 57.977,44.631 C57.977,46.566 56.387,48.141 54.434,48.141 C52.480,48.141 50.891,46.566 50.891,44.631 C50.891,44.334 50.928,44.046 50.999,43.771 L44.209,39.886 C43.570,40.500 42.700,40.880 41.742,40.880 C40.784,40.880 39.914,40.501 39.275,39.886 L32.486,43.771 C32.556,44.046 32.593,44.334 32.593,44.630 C32.593,46.234 31.502,47.590 30.017,48.007 L30.017,59.153 C30.017,59.681 29.584,60.110 29.050,60.110 C28.517,60.110 28.084,59.681 28.084,59.153 L28.084,48.007 C26.599,47.590 25.507,46.234 25.507,44.631 C25.507,44.334 25.545,44.046 25.615,43.771 L18.825,39.886 C18.187,40.501 17.317,40.880 16.359,40.880 C15.401,40.880 14.531,40.501 13.892,39.886 L7.102,43.771 C7.173,44.046 7.210,44.334 7.210,44.631 C7.210,46.567 5.621,48.142 3.667,48.142 C1.714,48.142 0.124,46.567 0.124,44.631 C0.124,42.695 1.714,41.119 3.667,41.119 C4.625,41.119 5.495,41.499 6.134,42.114 L12.924,38.229 C12.853,37.954 12.816,37.666 12.816,37.369 C12.816,35.765 13.907,34.410 15.392,33.992 L15.392,26.224 C13.907,25.806 12.816,24.451 12.816,22.847 C12.816,22.551 12.853,22.263 12.924,21.987 L6.134,18.103 C5.495,18.717 4.625,19.097 3.667,19.097 C1.713,19.097 0.124,17.522 0.124,15.586 C0.124,13.650 1.713,12.075 3.667,12.075 C5.621,12.075 7.210,13.650 7.210,15.586 C7.210,15.882 7.172,16.170 7.102,16.445 L13.892,20.330 C14.530,19.716 15.400,19.336 16.359,19.336 C17.317,19.336 18.187,19.716 18.825,20.330 L25.615,16.446 C25.545,16.171 25.507,15.882 25.507,15.586 C25.507,13.982 26.599,12.627 28.084,12.209 L28.084,1.064 C28.084,0.535 28.517,0.106 29.050,0.106 C29.584,0.106 30.017,0.535 30.017,1.064 L30.017,12.209 C31.502,12.627 32.593,13.982 32.593,15.586 C32.593,15.882 32.556,16.171 32.485,16.446 L39.275,20.330 C39.914,19.716 40.784,19.336 41.742,19.336 C42.700,19.336 43.570,19.716 44.208,20.330 L50.998,16.446 C50.928,16.171 50.890,15.882 50.890,15.586 C50.890,13.650 52.480,12.075 54.433,12.075 C56.387,12.075 57.976,13.650 57.976,15.586 C57.976,17.522 56.387,19.097 54.433,19.097 ZM54.433,46.226 C55.321,46.226 56.044,45.510 56.044,44.630 C56.044,43.750 55.321,43.034 54.433,43.034 C53.545,43.034 52.823,43.750 52.823,44.630 C52.823,45.510 53.545,46.226 54.433,46.226 ZM3.667,43.034 C2.779,43.034 2.056,43.750 2.056,44.630 C2.056,45.510 2.779,46.226 3.667,46.226 C4.555,46.226 5.277,45.510 5.277,44.630 C5.277,43.750 4.555,43.034 3.667,43.034 ZM3.667,13.990 C2.779,13.990 2.056,14.706 2.056,15.586 C2.056,16.466 2.779,17.182 3.667,17.182 C4.555,17.182 5.277,16.466 5.277,15.586 C5.277,14.706 4.555,13.990 3.667,13.990 ZM41.742,38.965 C42.630,38.965 43.352,38.249 43.352,37.369 C43.352,36.489 42.630,35.774 41.741,35.773 C40.853,35.774 40.131,36.489 40.131,37.369 C40.131,38.249 40.854,38.965 41.742,38.965 ZM29.050,46.226 C29.938,46.226 30.660,45.510 30.660,44.630 C30.660,43.750 29.938,43.034 29.050,43.034 C28.162,43.034 27.439,43.750 27.439,44.630 C27.439,45.510 28.162,46.226 29.050,46.226 ZM14.748,37.369 C14.748,38.249 15.470,38.965 16.358,38.965 C17.246,38.965 17.969,38.249 17.969,37.369 C17.969,36.489 17.246,35.773 16.358,35.773 C15.470,35.773 14.748,36.489 14.748,37.369 ZM16.358,21.251 C15.470,21.251 14.748,21.967 14.748,22.847 C14.748,23.727 15.470,24.443 16.358,24.443 C17.246,24.443 17.969,23.727 17.969,22.847 C17.969,21.967 17.246,21.251 16.358,21.251 ZM29.050,13.990 C28.162,13.990 27.439,14.706 27.439,15.586 C27.439,16.466 28.162,17.182 29.050,17.182 C29.938,17.182 30.660,16.466 30.660,15.586 C30.660,14.706 29.938,13.990 29.050,13.990 ZM38.199,22.847 C38.199,22.550 38.236,22.263 38.307,21.987 L31.517,18.103 C30.878,18.717 30.008,19.097 29.050,19.097 C28.092,19.097 27.222,18.717 26.583,18.103 L19.793,21.987 C19.864,22.263 19.901,22.550 19.901,22.847 C19.901,24.451 18.810,25.806 17.325,26.224 L17.325,33.992 C18.810,34.410 19.901,35.765 19.901,37.369 C19.901,37.666 19.864,37.954 19.793,38.229 L26.583,42.113 C27.222,41.499 28.092,41.119 29.050,41.119 C30.008,41.119 30.878,41.499 31.517,42.113 L38.306,38.229 C38.236,37.954 38.199,37.666 38.199,37.369 C38.199,35.765 39.290,34.410 40.775,33.992 L40.775,26.224 C39.290,25.806 38.199,24.451 38.199,22.847 ZM41.742,21.251 C40.854,21.251 40.131,21.967 40.131,22.847 C40.131,23.727 40.854,24.443 41.742,24.443 C42.630,24.443 43.352,23.727 43.352,22.847 C43.352,21.967 42.630,21.251 41.742,21.251 ZM54.433,13.990 C53.545,13.990 52.823,14.706 52.823,15.586 C52.823,16.466 53.545,17.182 54.433,17.182 C55.321,17.182 56.044,16.466 56.044,15.586 C56.044,14.706 55.321,13.990 54.433,13.990 ZM35.829,37.435 L32.064,39.589 C31.912,39.676 31.746,39.717 31.582,39.717 C31.248,39.717 30.923,39.546 30.744,39.239 C30.477,38.781 30.636,38.195 31.098,37.931 L34.863,35.777 C35.325,35.512 35.916,35.669 36.183,36.127 C36.449,36.585 36.291,37.171 35.829,37.435 ZM35.345,24.568 C35.181,24.568 35.015,24.527 34.863,24.440 L31.098,22.286 C30.635,22.021 30.477,21.436 30.744,20.978 C31.011,20.520 31.602,20.363 32.064,20.627 L35.829,22.781 C36.291,23.045 36.449,23.631 36.183,24.089 C36.004,24.396 35.679,24.568 35.345,24.568 ZM20.223,33.220 C19.690,33.220 19.257,32.791 19.257,32.262 L19.257,27.954 C19.257,27.426 19.690,26.997 20.223,26.997 C20.757,26.997 21.190,27.426 21.190,27.954 L21.190,32.262 C21.190,32.791 20.757,33.220 20.223,33.220 Z"></path>
  </symbol>
  <symbol xmlns="http://www.w3.org/2000/svg" viewBox="0 0 57 61" id="hands">
    <path d="M56.822,43.472 C56.672,43.187 56.405,42.983 56.091,42.913 C56.012,42.896 49.658,41.492 41.560,40.372 C41.549,40.334 41.541,40.298 41.525,40.262 C37.955,31.919 36.772,31.919 36.137,31.919 C35.371,31.919 31.567,32.702 28.470,33.367 L28.470,25.338 C28.516,25.338 28.562,25.334 28.608,25.328 C29.669,25.611 30.747,25.751 31.815,25.751 C35.053,25.751 38.209,24.479 40.578,22.107 C43.861,18.819 45.035,14.018 43.639,9.579 C43.532,9.238 43.265,8.970 42.923,8.863 C38.491,7.466 33.697,8.640 30.413,11.928 C29.902,12.440 29.448,12.992 29.041,13.570 C28.633,10.324 27.167,7.245 24.762,4.837 C20.794,0.864 15.002,-0.555 9.645,1.133 C9.304,1.241 9.037,1.508 8.929,1.850 C7.243,7.214 8.661,13.014 12.629,16.988 C15.492,19.855 19.304,21.392 23.217,21.392 C24.236,21.392 25.261,21.285 26.279,21.073 L26.279,33.844 C25.855,33.937 25.478,34.020 25.170,34.089 C22.879,33.646 19.108,33.162 17.837,34.434 L15.829,36.444 L12.789,37.459 C9.096,38.692 7.830,44.156 7.692,44.807 C6.437,44.047 5.200,43.144 4.010,42.072 C3.809,41.891 3.548,41.790 3.277,41.790 C0.851,41.790 -0.009,42.972 -0.009,43.984 C-0.009,44.300 -0.009,44.888 2.293,47.562 C3.183,48.596 5.058,50.663 7.623,52.900 C11.565,56.338 17.432,60.437 22.993,60.437 C29.401,60.437 33.982,59.086 37.327,58.101 C39.138,57.568 40.569,57.146 41.614,57.146 C44.952,57.146 51.380,56.080 51.652,56.034 C52.030,55.971 52.347,55.716 52.489,55.360 L56.871,44.391 C56.990,44.093 56.972,43.757 56.822,43.472 ZM31.962,13.479 C34.529,10.909 38.217,9.907 41.708,10.797 C42.596,14.292 41.596,17.986 39.029,20.556 C36.680,22.908 33.394,23.941 30.178,23.420 C31.067,21.945 32.317,20.250 33.341,19.738 C33.882,19.467 34.101,18.809 33.831,18.266 C33.560,17.725 32.902,17.505 32.361,17.776 C31.082,18.416 29.874,19.890 28.979,21.218 C28.836,18.370 29.887,15.557 31.962,13.479 ZM21.290,13.089 C24.163,15.007 25.201,18.961 25.217,19.024 C25.218,19.027 25.219,19.030 25.220,19.033 C21.206,19.668 17.109,18.372 14.178,15.436 C10.926,12.180 9.680,7.487 10.858,3.064 C15.274,1.886 19.962,3.133 23.213,6.389 C26.052,9.231 27.361,13.168 26.865,17.064 C26.232,15.456 24.904,12.865 22.505,11.264 C22.001,10.927 21.322,11.064 20.986,11.567 C20.651,12.071 20.787,12.752 21.290,13.089 ZM9.828,45.296 C10.098,43.944 11.280,40.276 13.481,39.540 L16.767,38.444 C16.929,38.390 17.075,38.300 17.196,38.179 L19.369,36.003 C19.907,35.671 22.562,35.804 24.969,36.285 C25.119,36.315 25.273,36.313 25.421,36.280 C29.776,35.311 34.610,34.304 35.886,34.136 C36.521,34.837 37.884,37.475 39.036,40.040 C37.765,39.882 36.465,39.734 35.151,39.602 C24.270,38.512 18.007,39.453 16.537,42.396 C16.242,42.987 16.261,43.630 16.589,44.162 C17.496,45.632 20.716,46.178 28.470,46.178 C29.574,46.178 30.086,46.469 30.189,46.718 C30.281,46.939 30.166,47.295 29.920,47.560 C29.360,47.894 25.668,48.960 20.350,48.626 C17.352,48.436 13.448,47.753 9.553,45.827 C9.688,45.683 9.786,45.503 9.828,45.296 ZM50.686,53.968 C48.997,54.234 44.201,54.952 41.614,54.952 C40.253,54.952 38.689,55.413 36.709,55.996 C33.491,56.945 29.085,58.243 22.993,58.243 C18.257,58.243 13.034,54.637 9.487,51.612 C5.710,48.392 3.139,45.263 2.367,44.109 C2.516,44.068 2.702,44.032 2.891,44.009 C8.852,49.197 15.794,50.590 20.609,50.838 C25.583,51.093 30.427,50.156 31.435,49.147 C32.336,48.245 32.649,46.931 32.213,45.878 C31.921,45.171 31.045,43.984 28.470,43.984 C21.646,43.984 19.386,43.509 18.664,43.138 C19.357,42.351 22.347,40.525 34.933,41.785 C43.436,42.636 51.357,44.171 54.353,44.787 L50.686,53.968 Z"></path>
  </symbol>
  <symbol xmlns="http://www.w3.org/2000/svg" viewBox="0 0 41 40" id="viber">
    <path d="M34.143,5.859 C26.328,-1.956 13.666,-1.956 5.860,5.859 C-1.656,13.375 -1.939,25.396 5.020,33.252 L5.228,33.419 C4.471,35.048 3.174,37.060 1.113,38.075 C0.431,38.407 0.589,39.421 1.337,39.538 C3.590,39.887 6.824,39.496 9.842,37.218 L9.883,37.252 C17.549,41.757 27.575,40.726 34.159,34.142 C41.957,26.336 41.957,13.666 34.143,5.859 ZM26.594,28.556 C26.153,29.005 25.688,29.420 25.272,29.886 C24.665,30.567 23.900,30.784 23.036,30.734 C21.772,30.667 20.600,30.243 19.477,29.695 C16.975,28.481 14.838,26.793 13.051,24.665 C11.729,23.093 10.640,21.381 9.917,19.444 C9.568,18.504 9.318,17.548 9.393,16.534 C9.443,15.911 9.676,15.378 10.133,14.938 C10.632,14.464 11.097,13.973 11.588,13.491 C12.228,12.860 13.026,12.867 13.666,13.491 C14.065,13.882 14.448,14.272 14.838,14.663 C15.221,15.046 15.603,15.420 15.977,15.802 C16.642,16.476 16.642,17.257 15.977,17.930 C15.503,18.412 15.030,18.895 14.539,19.360 C14.414,19.485 14.398,19.585 14.464,19.743 C14.780,20.508 15.246,21.190 15.761,21.821 C16.800,23.101 17.981,24.240 19.394,25.122 C19.693,25.313 20.026,25.446 20.342,25.621 C20.500,25.712 20.616,25.679 20.741,25.546 C21.215,25.056 21.705,24.573 22.188,24.091 C22.828,23.459 23.626,23.459 24.258,24.091 C25.039,24.864 25.812,25.637 26.585,26.419 C27.251,27.101 27.251,27.899 26.594,28.556 ZM19.220,15.636 L19.469,13.857 C21.190,14.098 22.753,14.880 23.983,16.110 C25.156,17.282 25.920,18.754 26.195,20.375 L24.424,20.682 C24.208,19.427 23.618,18.288 22.711,17.382 C21.755,16.426 20.550,15.819 19.220,15.636 ZM29.088,20.375 C28.689,18.047 27.591,15.935 25.920,14.256 C24.158,12.493 21.922,11.379 19.452,11.030 L19.702,9.251 C22.553,9.650 25.147,10.939 27.184,12.984 C29.121,14.921 30.393,17.373 30.859,20.067 L29.088,20.375 Z"></path>
  </symbol>
  <symbol xmlns="http://www.w3.org/2000/svg" viewBox="0 0 40 40" id="mail">
    <path d="M20.000,40.001 C18.160,40.001 16.386,39.761 14.680,39.281 C12.973,38.801 11.379,38.127 9.899,37.261 C8.419,36.394 7.072,35.354 5.859,34.140 C4.646,32.927 3.606,31.580 2.739,30.100 C1.872,28.620 1.199,27.026 0.719,25.320 C0.239,23.613 -0.001,21.839 -0.001,20.000 C-0.001,18.159 0.239,16.386 0.719,14.679 C1.199,12.972 1.872,11.379 2.739,9.899 C3.606,8.419 4.646,7.072 5.859,5.858 C7.072,4.645 8.419,3.605 9.899,2.738 C11.379,1.872 12.973,1.198 14.680,0.718 C16.386,0.238 18.160,-0.002 20.000,-0.002 C22.747,-0.002 25.340,0.525 27.780,1.578 C30.221,2.632 32.341,4.058 34.141,5.858 C35.941,7.659 37.368,9.779 38.421,12.219 C39.474,14.659 40.001,17.253 40.001,20.000 C40.001,21.839 39.761,23.613 39.281,25.320 C38.801,27.026 38.128,28.620 37.261,30.100 C36.394,31.580 35.354,32.927 34.141,34.140 C32.928,35.354 31.581,36.394 30.101,37.261 C28.620,38.127 27.027,38.801 25.320,39.281 C23.614,39.761 21.840,40.001 20.000,40.001 ZM29.641,11.759 L10.679,11.759 C10.493,11.759 10.333,11.819 10.199,11.939 C10.066,12.059 9.999,12.226 9.999,12.439 L9.999,14.559 C9.999,14.666 10.039,14.719 10.119,14.719 L20.080,20.399 L20.160,20.439 C20.213,20.439 20.253,20.426 20.280,20.399 L29.921,14.719 C29.974,14.692 30.014,14.679 30.041,14.679 C30.067,14.679 30.107,14.666 30.161,14.639 C30.267,14.639 30.321,14.586 30.321,14.479 L30.321,12.439 C30.321,12.226 30.254,12.059 30.121,11.939 C29.987,11.819 29.827,11.759 29.641,11.759 ZM16.040,20.279 C16.066,20.253 16.080,20.212 16.080,20.160 C16.080,20.079 16.053,20.039 16.000,20.039 L10.279,16.759 C10.199,16.732 10.133,16.732 10.079,16.759 C10.026,16.759 9.999,16.799 9.999,16.879 L9.999,25.480 C9.999,25.560 10.039,25.613 10.119,25.640 L10.199,25.640 C10.253,25.640 10.279,25.626 10.279,25.600 L16.040,20.279 ZM23.000,20.919 C22.973,20.839 22.907,20.826 22.800,20.879 L20.600,22.160 C20.333,22.320 20.053,22.320 19.760,22.160 L17.840,21.080 C17.760,21.026 17.693,21.026 17.640,21.080 L10.319,27.880 C10.293,27.906 10.279,27.960 10.279,28.040 C10.279,28.066 10.306,28.107 10.359,28.160 C10.519,28.214 10.626,28.240 10.679,28.240 L29.440,28.240 C29.494,28.240 29.547,28.214 29.600,28.160 C29.600,28.053 29.587,27.987 29.560,27.960 L23.000,20.919 ZM30.201,16.599 L30.041,16.599 L24.600,19.839 C24.547,19.839 24.520,19.880 24.520,19.959 C24.494,19.986 24.507,20.026 24.560,20.079 L30.001,25.960 C30.054,26.013 30.094,26.040 30.121,26.040 L30.201,26.040 C30.281,25.960 30.321,25.906 30.321,25.880 L30.321,16.759 C30.321,16.706 30.281,16.653 30.201,16.599 Z"></path>
  </symbol>
  <symbol xmlns="http://www.w3.org/2000/svg" viewBox="0 0 51 50" id="facebook">
    <path d="M36.691,-0.001 L13.538,-0.001 C6.063,-0.001 -0.000,6.035 -0.000,13.476 L-0.000,36.524 C-0.000,43.966 6.063,50.001 13.538,50.001 L25.486,50.001 L25.486,31.815 L21.919,31.815 L21.919,25.753 L25.486,25.753 C25.486,25.753 25.486,21.616 25.486,20.701 C25.486,19.786 25.355,13.629 33.250,13.629 C34.320,13.629 36.662,13.629 38.802,13.629 C38.802,16.363 38.802,19.215 38.802,20.047 C37.256,20.047 35.544,20.047 34.736,20.047 C33.928,20.047 33.095,20.879 33.095,21.510 C33.095,22.128 33.095,25.753 33.095,25.753 C33.095,25.753 38.184,25.753 38.838,25.753 C38.612,28.962 38.136,31.815 38.136,31.815 L33.095,31.815 L33.095,50.001 L36.691,50.001 C44.167,50.001 50.230,43.966 50.230,36.524 L50.230,13.476 C50.230,6.035 44.167,-0.001 36.691,-0.001 Z"></path>
  </symbol>
  <symbol xmlns="http://www.w3.org/2000/svg" viewBox="0 0 52 50" id="twitter">
    <path d="M37.500,-0.001 L14.347,-0.001 C6.872,-0.001 0.809,6.035 0.809,13.476 L0.809,36.524 C0.809,43.966 6.872,50.001 14.347,50.001 L37.500,50.001 C44.975,50.001 51.038,43.966 51.038,36.524 L51.038,13.476 C51.038,6.035 44.975,-0.001 37.500,-0.001 ZM38.147,19.560 L38.167,20.293 C38.167,27.813 32.418,36.485 21.901,36.485 C18.673,36.485 15.671,35.537 13.140,33.926 C13.592,33.975 14.043,34.005 14.504,34.005 C17.182,34.005 19.655,33.096 21.607,31.572 C19.105,31.524 16.996,29.873 16.270,27.617 C16.623,27.686 16.976,27.725 17.349,27.725 C17.879,27.725 18.364,27.657 18.845,27.529 C16.236,27.012 14.249,24.707 14.249,21.953 L14.249,21.885 C15.034,22.314 15.922,22.569 16.854,22.598 C15.323,21.582 14.320,19.834 14.320,17.861 C14.320,16.816 14.608,15.840 15.099,15.000 C17.914,18.447 22.135,20.713 26.883,20.947 C26.785,20.527 26.737,20.097 26.737,19.648 C26.737,16.504 29.298,13.955 32.457,13.955 C34.095,13.955 35.587,14.648 36.626,15.752 C37.931,15.498 39.148,15.030 40.256,14.375 C39.825,15.703 38.922,16.816 37.745,17.519 C38.903,17.383 40.001,17.070 41.032,16.621 C40.266,17.764 39.295,18.769 38.147,19.560 Z"></path>
  </symbol>
  <symbol xmlns="http://www.w3.org/2000/svg" viewBox="0 0 51 50" id="instagram">
    <path d="M37.473,50.001 L14.320,50.001 C6.844,50.001 0.781,43.966 0.781,36.524 L0.781,13.476 C0.781,6.035 6.844,-0.001 14.320,-0.001 L37.473,-0.001 C44.948,-0.001 51.011,6.035 51.011,13.476 L51.011,36.524 C51.011,43.966 44.948,50.001 37.473,50.001 ZM37.571,19.140 C37.571,15.605 35.089,13.378 32.803,13.378 L19.402,13.378 C16.311,13.378 14.222,15.781 14.222,19.287 L14.222,31.348 C14.222,34.717 16.351,36.622 20.030,36.622 L32.352,36.622 C35.275,36.622 37.571,34.287 37.571,31.280 L37.571,19.140 ZM32.362,35.645 L20.030,35.645 C17.832,35.645 15.203,34.913 15.203,31.338 L15.203,21.680 L20.709,21.680 C20.245,22.559 19.981,23.480 19.981,24.507 C19.981,27.759 22.639,30.391 25.896,30.391 C29.153,30.391 31.812,27.754 31.812,24.502 C31.812,23.479 31.550,22.518 31.089,21.680 L36.590,21.680 L36.590,31.270 C36.590,33.780 34.775,35.645 32.362,35.645 ZM25.896,19.590 C28.624,19.590 30.841,21.787 30.841,24.502 C30.841,27.217 28.624,29.424 25.896,29.424 C23.169,29.424 20.952,27.227 20.952,24.512 C20.952,21.797 23.169,19.590 25.896,19.590 ZM25.896,28.223 C27.957,28.223 29.624,26.563 29.624,24.512 C29.624,22.461 27.957,20.801 25.896,20.801 C23.836,20.801 22.168,22.461 22.168,24.512 C22.168,26.563 23.836,28.223 25.896,28.223 ZM25.896,22.646 C26.926,22.646 27.760,23.477 27.760,24.502 C27.760,25.528 26.926,26.357 25.896,26.357 C24.866,26.357 24.032,25.528 24.032,24.502 C24.032,23.477 24.866,22.646 25.896,22.646 ZM25.887,18.598 C24.088,18.598 22.463,19.413 21.384,20.674 L21.384,20.703 L15.203,20.703 L15.203,19.277 C15.203,17.987 15.595,16.573 16.478,15.599 L16.478,19.218 C16.478,19.492 16.704,19.707 16.969,19.707 C17.234,19.707 17.459,19.492 17.459,19.229 L17.459,14.873 C17.459,14.860 17.422,14.848 17.421,14.836 C17.625,14.728 17.852,14.637 18.048,14.566 L18.048,19.218 C18.048,19.492 18.274,19.707 18.538,19.707 C18.803,19.707 19.029,19.492 19.029,19.218 L19.029,14.502 C19.029,14.465 19.049,14.416 19.041,14.382 C19.151,14.375 19.287,14.356 19.402,14.356 L19.751,14.356 C19.742,14.453 19.716,14.461 19.716,14.502 L19.716,19.218 C19.716,19.492 19.941,19.707 20.206,19.707 C20.481,19.707 20.697,19.492 20.697,19.218 L20.697,14.502 C20.697,14.461 20.710,14.453 20.701,14.356 L32.803,14.356 C34.628,14.356 36.590,16.201 36.590,19.140 L36.590,20.605 L30.355,20.605 C29.271,19.434 27.666,18.598 25.887,18.598 ZM30.605,18.369 C30.605,18.957 31.084,19.434 31.675,19.434 L33.264,19.434 C33.855,19.434 34.333,18.957 34.333,18.369 L34.333,16.787 C34.333,16.199 33.855,15.723 33.264,15.723 L31.675,15.723 C31.084,15.723 30.605,16.199 30.605,16.787 L30.605,18.369 Z"></path>
  </symbol>
</svg>